<?xml version="1.0" encoding="UTF-8"?>
<svg version="1.1" viewBox="0 0 1600 1600" width="2500" height="2500" xmlns="http://www.w3.org/2000/svg">
<path transform="translate(848,243)" d="m0 0h26l20 4 22 8 41 18 35 16 29 13 40 18 35 16 36 16 39 18 29 13 84 38 35 16 29 13 68 31 24 12 11 7 10 8 10 10 5 8 3 9 1 8v14l-4 20-5 13-7 13-11 14-12 13-7 8-15 16-12 13-7 7-7 8-3 3v2l23 12 11 7 10 8 9 9 6 10 3 8 1 9v12l-3 18-7 18-6 10-8 11-12 14-18 20-7 8-9 10-11 12-7 8-12 13-7 8-11 12-9 10-11 12-7 8-12 13-7 8-12 13-18 20-11 12-7 8-12 13-18 20-11 12-7 8-12 13-7 8-12 13-18 20-11 12-7 8-12 13-18 20-11 12-7 8-12 13-7 8-12 13-18 20-11 12-18 20-11 12-18 20-24 26-11 12-16 16-14 11-11 7-17 9-18 6-14 2-20-1-14-3-15-5-15-7-25-13-24-14-26-15-51-30-51-30-27-16-29-17-51-30-51-30-51-30-51-30-27-16-29-17-28-17-22-14-17-13-11-9-13-12-19-19-9-11-10-14-9-15-8-16-8-20-6-19-5-24-2-25 1-16 2-11 5-13 8-11 13-13 8-7 28-24 11-9 15-13 11-9 15-13 11-9 15-13 91-77 14-12 11-9 15-13 11-9 15-13 11-9 15-13 11-9 15-13 91-77 14-12 11-9 15-13 11-9 15-13 11-9 15-13 11-9 15-13 104-88 17-14 16-12 10-6 12-4z" fill="#B285E6"/>
<path transform="translate(1322,439)" d="m0 0 9 3 41 19 33 15 29 14 16 9 11 9 10 10 5 8 3 9 1 8v14l-4 20-5 13-7 13-11 14-12 13-7 8-15 16-12 13-7 7-7 8-3 3v2l23 12 11 7 10 8 9 9 6 10 3 8 1 9v12l-3 18-7 18-6 10-8 11-12 14-18 20-7 8-9 10-11 12-7 8-12 13-7 8-11 12-9 10-11 12-7 8-12 13-7 8-12 13-18 20-11 12-7 8-12 13-18 20-11 12-7 8-12 13-7 8-12 13-18 20-11 12-7 8-12 13-18 20-11 12-7 8-12 13-7 8-12 13-18 20-11 12-18 20-11 12-18 20-24 26-11 12-16 16-14 11-11 7-17 9-18 6-14 2-20-1-14-3-15-5-15-7-25-13-24-14-26-15-51-30-51-30-27-16-29-17-51-30-51-30-51-30-51-30-27-16-29-17-28-17-22-14-17-13-11-9-13-12-19-19-9-11-10-14-9-15-8-16-8-20-6-19-5-24-1-9v-23l3-17 4-9 4-6 9-6 14-3h9l18 3 20 6 25 12 30 16 17 10 12 6 16 9 23 13 50 28 23 13 20 11 23 13 27 15 23 13 18 10 23 13 18 10 41 23 18 10 21 12 27 15 1 24 1 10-12-6-21-12-25-14-24-14-27-15-24-14-22-12-21-12-23-13-28-16-25-14-24-14-22-12-21-12-23-13-28-16-61-34-23-11-13-4 1 28 3 19 6 22 7 16 6 11 9 12 5 5v2l4 2 13 11 16 11 20 14 20 12 19 12 25 15 73 43 24 14 65 38 26 15 24 14 28 16 24 14 26 15 24 14 23 13 15 9 28 16 24 14 21 12 16 8 11 4 8 2h21l13-5 10-7 10-9 11-11 7-8 16-17 12-13 15-16 11-12 29-31 12-13 28-30 11-12 15-16 24-26 13-14 9-11 9-10 3-5 4 1 24 13 18 12 11 11 9 3h11l6-2 2-5 4-9 5-25 4-33 4-50 1-20 1-42 1-8 6-8 9-10 7-8 8-9h2l2-5 5-4 5-7h2v-2h2l2-4 5-5 9-10h2l2-4 7-8 9-10 3-4v-12l-5-13-2-4-4-2-10-8-15-9-23-13-29-15-42-21-39-18-9-4-11-5-11-4v-3l48-48h2v-2l8-7 74-74 8-7 72-72 8-7 12-12z" fill="#98D6E8"/>
<path transform="translate(1018,665)" d="m0 0h16l16 3 27 9 24 10 37 17 35 17 15 8 19 9 22 12 21 12 12 8 10 8 4 7 4 10v12l-11 13-7 7-4 6-8 7-4 5h-2l-2 4-2 3h-2v2h-2l-2 4-6 7h-2l-2 5-15 15-9 11-5 6-2 3-1 8-1 42-3 48-4 40-4 27-4 15-4 9-4 4-4 2h-11l-11-4-10-11-17-11-19-10-9-5-2 5-11 12-9 11-29 31-11 12-28 30-11 12-15 16-12 13-42 45-11 12-15 16-12 13-14 15-10 10-13 9-13 5h-21l-15-4-16-8-15-8-24-14-26-15-64-37-24-14-28-16-24-14-26-15-24-14-26-15-24-14-53-31-29-17-17-10-28-17-19-11-19-12-26-16-34-24-14-12-5-5-8-9-7-11-8-17-5-15-4-17-2-14v-28l7 1 15 6 22 11 41 23 21 12 23 13 28 16 25 14 28 16 25 14 28 16 25 14 24 14 22 12 49 28 25 14 21 12 25 14 12 7-1-9v-20l2-2 83 46 27 14 13 6 20 7 13 3 26 2 19-2 17-5 16-8 9-5 14-10 15-14 20-20 7-8 17-17 2-3h2l2-4 12-12 7-8 8-8 1-2h2l2-4 12-12 1-2h2l2-4 14-14 7-8 9-9 7-8 10-10 7-8 9-9 7-8 10-10 7-8 9-9 7-8 8-8 1-2h2l2-4 5-7-1-5h-2v-2l-5-2-18-10-47-24-25-13-22-12-29-16-24-15-14-10-10-9-7-8-3-5 1-4-4-8-1-6v-19l2-3 3 14 4 6 7 7h2l-7-8-5-10-1-17-1-3 6-12 8-10 11-10 17-10 19-7z" fill="#BBB5BB"/>
<path transform="translate(157,835)" d="m0 0h9l18 3 20 6 25 12 30 16 17 10 12 6 16 9 23 13 50 28 23 13 20 11 23 13 27 15 23 13 18 10 23 13 18 10 41 23 18 10 21 12 27 15 1 24 1 10-12-6-21-12-25-14-24-14-27-15-24-14-22-12-21-12-23-13-28-16-25-14-24-14-22-12-21-12-23-13-28-16-61-34-23-11-13-4 1 28 3 19 6 22 7 16 6 11 9 12 5 5v2l4 2 13 11 16 11 20 14 20 12 19 12 25 15 73 43 24 14 65 38 26 15 24 14 28 16 24 14 26 15 24 14 23 13 15 9 28 16 24 14 21 12 16 8 11 4 8 2h21l13-5 10-7 10-9 11-11 7-8 16-17 12-13 15-16 11-12 29-31 12-13 28-30 11-12 15-16 24-26 13-14 9-11 9-10 3-5 4 1 24 13 18 12 11 11 9 3 7 1v3l-7 8-11 9-10 11-9 11-15 16-9 11-8 9h-2l-2 4-10 11-7 8-9 11h-2l-2 4-9 11-5 5-1 2h-2v2h-2l-2 4-15 18h-2l-2 5-4 5h-2l-2 4-10 12h-2l-2 5-6 7-9 11-8 10-6 10v5l-10 10-7 8-14 15-15 15-14 11-11 7-17 9-18 6-14 2-20-1-14-3-15-5-15-7-25-13-24-14-26-15-51-30-51-30-27-16-29-17-51-30-51-30-51-30-51-30-27-16-29-17-28-17-22-14-17-13-11-9-13-12-19-19-9-11-10-14-9-15-8-16-8-20-6-19-5-24-1-9v-23l3-17 4-9 4-6 9-6z" fill="#763EBF"/>
<path transform="translate(965,789)" d="m0 0 5 2 18 12 20 12 29 16 28 15 68 35 17 10v2h2l2 5-6 8-2 3h-2l-2 4-12 12-7 8-9 9-7 8-10 10-7 8-9 9-7 8-10 10-7 8-9 9-7 8-10 10-1 2h-2l-2 4-12 12-1 2h-2l-2 4-12 12-7 8-8 8-7 8-20 20-7 8-24 24-14 11-11 7-16 8-13 5-15 3-12 1-26-2-20-5-20-8-28-14-23-13-24-13-18-10-23-13-1-3 5-9 14-15 16-17 15-15 8-7 76-76 8-7 77-77 8-7 73-73z" fill="#97D6E8"/>
<path transform="translate(961,761)" d="m0 0 11 7 27 16 29 16 32 17 56 30 25 14 21 13 12 8 5 3 1-5 8-10 5-5 4-5 4-4h2l1-3 15-15 7-8 14-15 5-6h2l2-4 7-8 5-5 7-8 2-3 4 2 3 4 3 8v12l-11 13-7 7-4 6-8 7-4 5h-2l-2 4-2 3h-2v2h-2l-2 4-6 7h-2l-2 5-15 15-9 11-5 6-2 3-1 8-1 42-3 48-4 40-4 27-4 15-4 9-4 4-4 2h-11l-11-4-10-11-17-11-19-10-9-5-2 5-11 12-9 11-29 31-11 12-28 30-11 12-15 16-12 13-42 45-11 12-15 16-12 13-14 15-10 10-13 9-13 5h-21l-15-4-16-8-15-8-24-14-26-15-64-37-24-14-28-16-24-14-26-15-24-14-26-15-24-14-53-31-29-17-17-10-28-17-19-11-19-12-26-16-34-24-14-12-5-5-8-9-7-11-8-17-5-15-4-17-2-14v-28l7 1 15 6 7 4 3 26 5 21 6 16 4 6v2l3 1 7 8 17 13 15 10 14 9 22 14 17 11 11 7 16 10 10 6 15 10 15 9 24 14 26 15 28 16 24 14 28 16 52 30 49 28 26 15 28 16 26 15 24 14 25 14 48 28 6 3 9 1 8-2 8-6 9-10 31-33 14-15 29-31 88-94 15-16 10-10 7-8 12-13 9-10 4-11 1-18 12-13 16-17 14-15 32-34 13-14 4-11v-19l-4-8-7-6-29-16-35-18-19-10-28-15-22-12-24-14-18-12-5-4-5-5-13-10-1-3 9-2z" fill="#AF6004"/>
<path transform="translate(1018,665)" d="m0 0h16l16 3 27 9 24 10 37 17 35 17 15 8 19 9 22 12 21 12 12 8 10 8 3 4-1 2-4-2-6 8-6 7h-2l-2 4-7 8-15 15-7 8-3 4h-2l-2 4-9 9-6 7h-2l-2 4h-2l-2 4-5 6h-2l-2 4-6 7-1 4-5-2-20-13-22-13-22-12-26-14-34-18-14-8-14-7-23-13-22-13-11-7-4-2-1 4-10 1-5-7-3-6-1-6v-19l2-3 3 14 4 6 7 7h2l-7-8-5-10-1-17-1-3 6-12 8-10 11-10 17-10 19-7z" fill="#F0B86E"/>
<path transform="translate(1381,694)" d="m0 0 1 4 4 2 5 7 1 3v11l-2 10-7 13-12 14-43 46-12 13-7 7-7 8-14 15-3 3-3 41-5 47-4 26-2 12 9-10 7-8 13-15 7-7 7-8 9-10 9-11 5-5 7-8h2l2-4 12-13 7-8 10-11 7-8 12-13 12-14 9-10 1-2h2l2-4 13-18 6-10 6-17 1-3v-19l-5-13-8-9 1-2 7 7 6 10 3 8 1 9v12l-3 18-7 18-6 10-8 11-12 14-18 20-7 8-9 10-11 12-7 8-12 13-7 8-11 12-9 10-11 12-7 8-12 13-7 8-12 13-18 20-11 12-7 8-12 13-18 20-11 12-7 8-12 13-7 8-12 13-18 20-11 12-7 8-12 13-18 20-11 12-7 8-12 13-7 8-12 13-18 20-11 12-18 20-11 12-18 20-5 5-1-4 8-12 10-13 6-7 8-11 5-5 9-11h2l2-4 4-6 4-4h2l2-4 8-10 3-4h2v-2h2l2-5 4-2 2-4 9-11h2l2-4 12-13 7-8 7-9 5-5 12-13 7-8 10-11 9-11 13-14 6-5h2l2-4 5-6 4-2 6-2 2-5 4-9 5-25 4-33 4-50 1-20 1-42 1-8 6-8 9-10 7-8 8-9h2l2-5 5-4 5-7h2v-2h2l2-4 5-5 9-10h2l2-4 7-8 9-10 3-4v-12l-4-11h2l5 10v4l21-21 7-8 8-8 7-8 11-11 7-8 8-8 7-8 9-9 7-8z" fill="#D5AC85"/>
<path transform="translate(174,869)" d="m0 0h15l6 2v29l3 19 6 22 7 16 6 11 9 12 5 5v2l4 2 13 11 16 11 20 14 20 12 19 12 25 15 73 43 24 14 65 38 26 15 24 14 28 16 24 14 26 15 24 14 23 13 15 9 28 16 24 14 21 12 16 8 11 4 8 2h21l13-5 10-7 10-9 11-11 7-8 16-17 12-13 15-16 11-12 29-31 12-13 28-30 11-12 15-16 24-26 13-14 9-11 9-10 3-5 4 1 24 13 18 12 7 7 4 5-5-1-23-11-22-12-6-3-4 1-7 8-29 31-15 16-11 12-29 31-11 12-15 16-12 13-14 15-11 12-15 16-12 13-15 16-11 12-15 16-11 10-13 8-13 4h-17l-21-5-13-4-26-11-16-5-18-6-12-3-12-6-11-6-4-2v-2l-4-1-13-8-11-7-11-6-19-11-9-6-9-5-10-6-12-7-11-6-13-8-17-10-16-9-11-7-12-6-13-8-14-8-9-6-5-2v-2l-6-2-15-8-9-6-14-7v-2l-6-2-20-11-3-1v-2l-6-2-8-4-5-3-14-8-15-8-36-18-11-5-13-6-6-3-10-4-21-9-12-6-12-5-10-6-6-5v-2l-3-1-9-11-8-13-5-11-5-18-4-14-4-23-1-14v-16l2-14 4-8 6-5z" fill="#60249E"/>
<path transform="translate(946,764)" d="m0 0 4 1 5 7 12 9 5 5 13 9 16 10 28 16 32 17 25 13 42 22 23 13 8 7 4 8v19l-5 12-31 33-32 34-14 15-9 10-8 7-9 10-15 16-9 9-7 8-9 9-7 8-9 9-7 8-9 9-7 8-12 12-7 8-32 32-13 10-14 9-16 8-21 7-8 1h-26l-15-3-18-6-18-8-23-12-23-13-29-16-21-12-17-10-3-5-1-7v-20l2-2 83 46 27 14 13 6 20 7 13 3 26 2 19-2 17-5 16-8 9-5 14-10 15-14 20-20 7-8 17-17 2-3h2l2-4 12-12 7-8 8-8 1-2h2l2-4 12-12 1-2h2l2-4 14-14 7-8 9-9 7-8 10-10 7-8 9-9 7-8 10-10 7-8 9-9 7-8 8-8 1-2h2l2-4 5-7-1-5h-2v-2l-5-2-18-10-47-24-25-13-22-12-29-16-24-15-14-10-10-9-7-8-3-5z" fill="#59B9D2"/>
<path transform="translate(1387,688)" d="m0 0 7 1 19 10 11 7 10 8 4 6 6 7 5 13v19l-5 15-6 12-10 14-8 11h-2l-2 4-11 12-9 11-7 7-7 8-10 11-7 8-11 12-8 10h-2l-2 4-8 9h-2l-2 4-13 14-7 8-9 10-10 11-7 8-10 11-4 4 6-39 5-47 3-41 12-12 7-8 14-15 16-17 12-13 29-31 8-10 8-15 1-8v-11l-3-6-4-5-2-1v-5z" fill="#763EBF"/>
<path transform="translate(223,883)" d="m0 0 16 8 8 5 1 9 4 10 4 9v3l5 6 4 6 12 13 5 5 11 10 13 9 16 12 11 9 11 8 6 3 10 8 6 3 5 4 11 7 12 8 11 6 10 6 12 8 18 11 10 6 22 13 10 6 24 14 21 12 19 11 11 6 9 6 12 6 17 10 11 6 16 9 9 6 22 12 21 12 17 10 12 6 11 7 28 16 24 14 11 7 15 10 10 7 6 4 6 3 5 5 7 3 5-2 3-4h2l2-4 11-12 7-8 7-6 7-8 15-16 7-8h2l2-4 12-12 7-8 3-4h2l2-4 7-8 4-4h2l2-4 6-8 7-6 6-8 5-5 7-8 6-8 8-10 5-6 3-5 2-1 12-16h2l2-5 4-5 4-8 3-8 15-16 9-9 7-8 15-16 2 3-1 15-4 11-7 7-7 8-12 13-9 10-12 12-7 8-8 8-7 8-7 7-7 8-7 7-7 8-8 8-7 8-8 8-7 8-8 8-7 8-8 8-7 8-7 7-7 8-8 8-7 8-7 7-7 8-8 8-7 8-7 7-6 7-7 4-9 1-8-2-20-11-17-10-26-15-28-16-52-30-49-28-26-15-24-14-25-14-17-10-26-15-21-12-52-30-24-14-20-12-15-10-10-6-13-8-53-34-11-7-22-15-10-8-7-6v-2l-3-1-6-8-5-10-6-21-3-15-1-8z" fill="#BBADAA"/>
<path transform="translate(199,1046)" d="m0 0h5l2 3 5 2 3 3 4 2 5 4 4 2 1 2 9 4 6 3v2l5 2 26 13 19 10 15 8 14 7 11 6 14 8 13 7 11 6 9 6 16 8 13 8 12 6 13 8 16 9 29 17 21 12 16 9 42 24 13 8 11 6 9 5 6 4 9 5 17 10 9 6 10 5 21 12 2 1v2l6 2 7 4 9 6 14 7 28 17 8 4 16 9 4 3 7 3v2h3l1 2 5 3 9 7 6 7 1 5 4 2 15 10 11 4 9 3 7 1-1 2h-8l-14-3-15-5-15-7-25-13-24-14-26-15-51-30-51-30-27-16-29-17-51-30-51-30-51-30-51-30-27-16-29-17-28-17-22-14-17-13-11-9-12-11z" fill="#8455C1"/>
<path transform="translate(971,785)" d="m0 0 5 2 21 13 24 13 22 12 28 15 29 15 22 12 20 11 12 8 7 6 4 8 2 6 1 11-2 21-4-2 1 3v12l-2 4 1 5 2 1v13l-5 63-4 31-3 9-1 2-6-1-14-12-12-11-10-7-5-2h-10l-3-4h-10l-6 5-3-1-1-7v-15l12-13 16-17 14-15 32-34 13-14 4-11v-19l-4-8-7-6-29-16-35-18-19-10-28-15-22-12-24-14-18-12z" fill="#5E1F2E"/>
<path transform="translate(347,699)" d="m0 0h2l1 4-7 10-6 8-7 6-4 6-15 15-9 12-7 7v3l-9 10-9 11-7 7-9 11-11 15-2 4v7l4 7 8 10 4 4v2l4 2 18 12 7 5v2l4 2v2l-9-2-15-8-46-23-24-10-23-7-15-3-3-3 4-4 27-15 14-10 17-12 17-13 10-8 17-13 15-11 11-8 17-12 11-7 15-10z" fill="#C6AAEB"/>
<path transform="translate(1061,1069)" d="m0 0 5 1 1 6-5 9-3 4h-2l-2 4-4 5h-2l-2 4-6 7-5 5-10 11h-2l-2 4-7 7-7 8-12 13-14 15-2 3h-2l-2 4-8 8-4 5h-2l-2 4-6 7h-2v2h-2l-2 4-8 8-7 8-16 17-11 12-15 16-9 10-14 15-12 12-15 10-13 4h-14l-16-3-12-6-6-5-9-9v-5l14 1 19 4 13 4h15v-2l9-6 11-12 44-47 29-31 88-94 15-16 10-10 6-7 5-3 5-4z" fill="#D58D0C"/>
<path transform="translate(1435,716)" d="m0 0 7 6 7 11 3 8 1 9v12l-3 18-7 18-6 10-8 11-12 14-18 20-7 8-9 10-11 12-7 8-12 13-7 8-11 12-9 10-11 12-7 8-12 13-7 8-12 13-18 20-11 12-7 8-12 13-18 20-11 12-7 8-12 13-7 8-12 13-18 20-11 12-7 8-12 13-18 20-11 12-7 8-12 13-7 8-12 13-18 20-11 12-18 20-11 12-18 20-5 5-1-4 8-12 10-13 6-7 8-11 5-5 9-11h2l2-4 4-6 4-4h2l2-4 8-10 3-4h2v-2h2l2-5 4-2 2-4 9-11h2l2-4 12-13 7-8 7-9 5-5 12-13 7-8 10-11 9-11 13-14 6-5h2l2-4 5-6 4-2 6-2 1-3 8-7 12-13 9-10 11-12 9-10 22-24 18-20 5-8 4-13 5-5 15-16 9-11 9-9 7-8 9-10 9-11 5-5 7-8h2l2-4 12-13 7-8 10-11 7-8 12-13 12-14 9-10 1-2h2l2-4 13-18 6-10 6-17 1-3v-19l-5-13-8-9z" fill="#B285E6"/>
<path transform="translate(281,912)" d="m0 0 11 3 10 4 16 8 20 9 17 8 8 5 13 6 7 3 8 4 19 10 11 6 14 7 7 4 34 18 13 7 10 6 8 5 14 7 22 12 9 5 16 9 6 3 20 11 16 9 12 7 33 18 3 1 1-3 2 26-12-6-21-12-25-14-24-14-27-15-24-14-22-12-21-12-23-13-28-16-25-14-24-14-22-12-21-12-23-13-28-16-8-6-2-1z" fill="#764FB3"/>
<path transform="translate(189,871)" d="m0 0h6v29l3 19 6 22 7 16 6 11 9 12 5 5v2l4 2 13 11 16 11 20 14 20 12 19 12 25 15 73 43 24 14 65 38 26 15 24 14 28 16 24 14 26 15 24 14 23 13 15 9 28 16 24 14 21 12 16 8 11 4 8 2h21l13-5 10-7 10-9 11-11 7-8 16-17 12-13 15-16 11-12 29-31 12-13 28-30 11-12 15-16 24-26 13-14 9-11 9-10 3-5 4 1 24 13 18 12 7 7 4 5-5-1-23-11-22-12-6-3-4 1-7 8-29 31-15 16-11 12-29 31-11 12-15 16-12 13-14 15-11 12-15 16-12 13-15 16-11 12-15 16-11 10-13 8-13 4h-17l-15-4-27-14-24-14-23-13-24-14-26-15-24-14-52-30-24-14-26-15-96-56-58-34-25-15-17-10-20-12-42-26-39-26-13-11-8-7-10-12-8-14-7-15-6-20-4-20-2-26z" fill="#5E1F2E"/>
<path transform="translate(670,1113)" d="m0 0 8 2 1 3 5 2 15 8 11 6 8 3 6 3v2l8 3 15 8 9 5 12 4 19 8 21 6 9 2 9 1h25l15-2 17-5 13-6 10-5 10-7 5-3h2v-2l7-3 4 1-8 25v4l-14 11-14 9-16 8-21 7-8 1h-26l-11-3v-2l-13-2-5-3-11-6-22-16-5-6-6-3-4-4-8-6-13-7-5-5-5-3v-2l-6-1-5-4-9-6-10-6-9-3v-2l-5-2-6-4z" fill="#39A8C3"/>
<path transform="translate(223,883)" d="m0 0 3 2v9l2 7 5 16 4 10 6 9 4 5 5 4v2l4 2 3 3v2l4 1 7 7 9 7 11 8 7 5v2l5 2 28 21 5 4 7 4 11 8 15 9 19 12 10 6 19 12 16 9 10 6 13 8 21 12 13 8 16 9 17 10 14 8 11 6 13 8 10 6 14 7 13 8 3 1v2l6 2 28 16 23 13 11 7 11 6 27 15 10 6 20 11 24 14 17 10 16 10 17 12 13 7v2h-6l-15-8-24-14-26-15-28-16-52-30-49-28-26-15-24-14-25-14-17-10-26-15-21-12-52-30-24-14-20-12-15-10-10-6-13-8-53-34-11-7-22-15-10-8-7-6v-2l-3-1-6-8-5-10-6-21-3-15-1-8z" fill="#AC999F"/>
<path transform="translate(961,761)" d="m0 0 11 7 27 16 29 16 32 17 56 30 25 14 21 13 12 8 5 3 1-5 8-10 5-5 4-5 4-4h2l1-3 15-15 7-8 14-15 5-6h2l2-4 7-8 5-5 7-8 2-3 4 2 3 4 3 8v12l-11 13-7 7-4 6-8 7-4 5h-2l-2 4-2 3h-2v2h-2l-2 4-6 7h-2l-2 5-15 15-9 11-5 6-2 3-1 8-1 42-3 48h-1v-16l1-16v-35l-1-3-2-20-3-11-3-6-9-10-18-13-18-11-16-9-28-15-22-12-12-6-16-9-16-8-25-14-14-7-6-4v-2l-6-2-11-8z" fill="#D58D0C"/>
<path transform="translate(1471,523)" d="m0 0 3 4 3 8v16l-5 16-4 9-7 13-10 13-8 10-10 11-7 8-3 4h-2l-2 4-4 5-12 12-7 8-15 16-5 6h-2l-2 4-3 4h-2v2l-4 4h-2l-2 4-9 9-5 7-13 13-5 6-5 5-4 5h-2l-2 4-9 9-7 8-11 12-2 3h-2l-2 4-3-1-1-4h-2l-3-4v-2h-2l1-4 11-11 7-8 9-9 1-2h2l2-4 8-8 5-6 17-17 7-8 6-7 16-16 7-8 9-9 7-8 7-7 7-8 9-9 7-8 15-16 12-13 9-11 5-6 1-2h2l2-5 8-16 3-13z" fill="#59BAD2"/>
<path transform="translate(1076,693)" d="m0 0 5 1 2 1v2l4 2 10 11 12 9 6 8 4 8 1 4v11l-3 7-3 5-7 6-5 3-15 5-7 1h-19l-21-4-14-5v-2l-6-1-12-6-6-4-7-8 1-5 2-3 7 1 16 4 16 1 10-1 13-3 14-7 8-9 3-10-2-12-7-9z" fill="#E5A854"/>
<path transform="translate(947,747)" d="m0 0 4 2 7 7 16 11 25 15 29 16 34 18 22 12 25 13 44 24 6 2 5-3 9-11 15-16 11-12 7-8 14-15 10-11 7-8 9-10 3-6-2-5 4 1 11 7 10 8 3 4-1 2-4-2-6 8-6 7h-2l-2 4-7 8-15 15-7 8-3 4h-2l-2 4-9 9-6 7h-2l-2 4h-2l-2 4-5 6h-2l-2 4-6 7-1 4-5-2-20-13-22-13-22-12-26-14-34-18-14-8-14-7-23-13-22-13-11-7-4-2-1 4-10 1-5-7z" fill="#E5A955"/>
<path transform="translate(986,1272)" d="m0 0 1 2-9 11-14 15-7 8-15 16-7 8-20 20-5 3-14 10-15 8-14 5-7 2-12 2h-10l-19-3-19-5-17-7-14-7-15-9-14-9-7-4-3-2v-2l9 1 8 3 16 2h11l1 1h10l2 1 24 3 15 3 22 3 3 2-2 1 18 9h13l22-11 4-1v-2l9-5 11-11h2v-2h2l2-4 19-19 7-8 25-25z" fill="#8353C0"/>
<path transform="translate(1381,697)" d="m0 0 5 3 5 7 1 3v11l-2 10-7 13-12 14-43 46-12 13-7 7-7 8-14 15-4 3 1-31 16-16 7-8 9-9 7-8 31-33 12-13 5-6 5-5 3-15z" fill="#D38B0C"/>
<path transform="translate(1475,530)" d="m0 0h2l2 5 1 8v14l-4 20-5 13-7 13-11 14-12 13-7 8-15 16-12 13-7 7-7 8-3 3v3l-5 3-16 16-7 8-9 9-7 8-8 8-7 8-11 11-7 8-8 8-7 8-10 10-4 5h-2l-3-10 3-1 1-2h2l2-4 7-7 7-8 11-12 4-5h2l2-4 5-6 5-4 7-8 6-7h2l2-4 9-10 5-6 4-4h2v-2h2l2-4 11-12 7-7 7-8 14-15 3-4h2l2-4 4-5 5-5 9-10 7-8 10-12 11-16 7-14 5-15 1-4v-16z" fill="#99D7E9"/>
<path transform="translate(1275,784)" d="m0 0h2l5 10v30l-3 7-2 4h-2l-2 4-9 11-10 11-9 11-13 15-24 28-12 15-2 8-5 67-3 30h-1v-10l4-50 1-20 1-42 1-8 6-8 9-10 7-8 8-9h2l2-5 5-4 5-7h2v-2h2l2-4 5-5 9-10h2l2-4 7-8 9-10 3-4v-12z" fill="#E5A955"/>
<path transform="translate(1381,694)" d="m0 0 1 3-3 21-4 7-3 1-2 4-10 10-7 8-31 33-12 13-7 7-7 8-11 11h-1l-2-22 21-21 7-8 8-8 7-8 11-11 7-8 8-8 7-8 9-9 7-8z" fill="#BCB5BA"/>
<path transform="translate(1435,716)" d="m0 0 7 6 7 11 2 11v15l-5 16-7 16-6 11-8 11-10 13-9 11-11 13-9 11-5 5-9 11h-2l-2 4h-2l-2 4-9 11-3 1-2 4-11 12-1 2h-2l-2 4-2 3h-2l-2 4-7 7-7 9-8 8-8 10h-2l-2 4-11 12-10 11-9 11-8 8-2-1 8-10 4-8 3-10 5-5 15-16 9-11 9-9 7-8 9-10 9-11 5-5 7-8h2l2-4 12-13 7-8 10-11 7-8 12-13 12-14 9-10 1-2h2l2-4 13-18 6-10 6-17 1-3v-19l-5-13-8-9z" fill="#B285E7"/>
<path transform="translate(1093,714)" d="m0 0 2 2 2-2 7 11 3 6 1 9-3 11-5 7-11 7-11 4-13 2h-16l-19-3-15-5-10-6v-2h2v-2l3-2h42l13-2 10-4 8-7 7-11z" fill="#D48C0B"/>
<path transform="translate(1450,738)" d="m0 0 2 3 1 9v12l-3 18-7 18-6 10-8 11-12 14-18 20-7 8-9 10-11 12-7 8-12 13-7 8-11 12-9 10-11 12-7 8-12 13-7 8-12 13-18 20-11 12-7 8-12 13-18 20-11 12-7 8-12 13-7 8-12 13-18 20-11 12-7 8-12 13-18 20-11 12-7 8-4 2 6-7 10-11 7-8 10-11 7-8 12-13 7-8 9-10 7-8 12-13 9-11 11-12 1-2h2l2-4 14-15 9-11 8-8 7-8 13-15 12-13 9-11 7-7 9-11 15-16 7-9h2l2-4 14-15 9-11 7-8h2l2-4 2-3h2l2-4 11-12 14-16 5-6 5-5 9-11 5-5 8-9 9-11 14-17 8-12 7-10 9-19 5-15 1-4z" fill="#BEB6BF"/>
<path transform="translate(1282,853)" d="m0 0 2 3v11l-4 45-5 40-4 23-6 17-7 9-22 24-9 10-12 13-9 10-11 12-9 10-11 12-3 2 3-9 1-2h2l3-13 6-9 12-14 9-11 10-11 7-9 9-10 11-14 14-16 7-10 4-9 4-20 4-33z" fill="#BBAEAB"/>
<path transform="translate(1157,1101)" d="m0 0 4 1-12 12-9 8-7 8-12 14-13 14-9 11-8 9h-2l-2 4-10 11-7 8-9 11h-2l-2 4-9 11-5 5-1 2h-2v2h-2l-2 4-15 18h-2l-2 5-4 5h-2l-2 4-10 12h-2l-2 5-6 7-9 11-8 10-6 10v5l-10 10-7 8-14 15-11 11-1-3 5-12 3-5h2l1-4h2l2-5h2l2-6 8-10 11-13 12-14 9-10 11-12 9-11 5-6 5-5 3-4h2l2-4 7-7 9-11 8-8 9-11 10-10 7-8 9-11 5-5 12-13 7-8 11-12 7-8 13-14 14-16 6-4z" fill="#8354C0"/>
<path transform="translate(946,764)" d="m0 0 4 1 5 7 12 9 5 5 13 9 16 10 28 16 32 17 25 13 42 22 23 13 8 7 4 8v19l-5 12-31 33-2 1 1-4 6-8 6-14v-7h-2v-6l8-10 10-11 2-3v-7l-5-6-17-10-47-24-23-12-28-15-29-16-25-15-14-10-5-1-12-12-5-8z" fill="#3AA5C2"/>
<path transform="translate(1085,1069)" d="m0 0 5 1 25 13 19 10 7 3 12 3 2 2-7 8-5-1-4-3-18-4-17-3-12-3-7-1h-12l-10 3-6 4 2-4 11-11 7-8z" fill="#5F239D"/>
<path transform="translate(1378,716)" d="m0 0 1 2-4 7-3 1-2 4-10 10-7 8-31 33-12 13-7 7-7 8-11 11h-1l-1-8v-10l2 3 8-7 9-9 1-2h2v-2h2v-2l21-21 7-8 3-1 2-4 10-10h2l1-3 8-7 13-10z" fill="#BCADA8"/>
<path transform="translate(261,1060)" d="m0 0 4 1 12 6 13 8 18 10 19 11 13 8 14 8 10 6 19 11 15 9 17 10 45 27 4 4-4-1-18-10-16-9-21-12-17-10-23-13-41-24-26-15-23-14-11-7z" fill="#8354C0"/>
<path transform="translate(242,956)" d="m0 0 5 2 4 5 17 13 15 10 14 9 22 14 17 11 11 7 5 5-2 1-28-17-7-3-10-4-11-6-14-9-15-10-10-7-5-5-7-8v-5z" fill="#61212C"/>
<path transform="translate(971,785)" d="m0 0 5 2 21 13 24 13 22 12 28 15 29 15 22 12 20 11 12 8 7 6 4 8 2 6 1 11-2 21-4-4-3-6 3-8v-19l-4-8-7-6-29-16-35-18-19-10-28-15-22-12-24-14-18-12z" fill="#5F227F"/>
<path transform="translate(783,1381)" d="m0 0 9 3 20 8 8 5 13 4 13 8 4 2 3 1v2l-12 1-7-1v-1l-9-2-10-3-10-5-16-11-3-6-2-2z" fill="#764FB3"/>
<path transform="translate(168,863)" d="m0 0 7 2 2 2-10 4-3 3-5 14-4 19h-1v22l-2-3h-2l-2-8-2-27 1-10 7-13 8-4z" fill="#764EB3"/>
<path transform="translate(1070,1024)" d="m0 0 2 3-1 15-4 11-7 7-7 8h-3l-6-9-3-3 6-7 9-10z" fill="#AC9A9F"/>
<path transform="translate(1389,731)" d="m0 0 1 4-4 9-8 11-16 17-11 12-12 13-29 31-11 12-14 15h-1v-5l12-12 7-8 14-15 16-17 12-13 29-31 8-10z" fill="#5E1F2E"/>
<path transform="translate(1390,724)" d="m0 0h1l-1 7-7 13-12 14-43 46-12 13-7 7-7 8-14 15-4 3 2-6 5-5 9-11h2l1-3h2l2-4 8-8 7-8 7-7 1-2h2l2-4 8-8 7-8 16-17 9-10 8-9 6-10z" fill="#AF6004"/>
<path transform="translate(986,1272)" d="m0 0 1 2-9 11-14 15-7 8-15 16-7 8-20 20-2-1 5-6-6 4h-3l15-14 4-2v-2h2l2-4 19-19 7-8 25-25z" fill="#8354C0"/>
<path transform="translate(1425,801)" d="m0 0v3l-5 7h-2l-2 4-11 12-9 11-7 7-7 8-10 11-7 8-11 12-8 10h-2l-2 4-8 9h-2l-2 4-13 14-7 8-9 10-10 11-7 8-10 11-4 4 1-8h3l7-7 7-8 13-14 7-8 18-20 12-13 7-8 18-20 12-13 18-20 7-8 13-15z" fill="#8253C0"/>
<path transform="translate(918,1344)" d="m0 0v3l-9 9-15 10-16 8-11 4-7 2-15 1v-3l15-4 18-6 16-8 14-9 8-6z" fill="#B285E7"/>
<path transform="translate(199,1046)" d="m0 0h5l2 3 5 2 3 3 4 2 5 4 4 2 1 2 9 4 6 3v2l-5-2-2-1 2 6h3l3 6-5-2-17-13-11-9-12-11z" fill="#7B53B7"/>
<path transform="translate(830,1212)" d="m0 0h23l-4 7-8 7-4 3-4-1-3-4z" fill="#AC9A9F"/>
<path transform="translate(1173,1100)" d="m0 0v3l-11 12-18 20-11 12-7 8-12 13-18 20-11 12-7 8-4 2 6-7 10-11 7-8 10-11 7-8 12-13 7-8 9-10 7-8 12-13 7-8z" fill="#BDB4C2"/>
<path transform="translate(999,708)" d="m0 0 3 1 3 12 5 10-1 5-6-1-6-7-2-5v-8l3-6z" fill="#BBAEAB"/>
<path transform="translate(1282,853)" d="m0 0 2 3v11l-4 45-5 40-2-4 1-11 4-33z" fill="#B8A3BA"/>
<path transform="translate(1056,1035)" d="m0 0h2l-1 4-7 7-7 8-12 12-7 8-8 8h-2l2-4 9-10 3-5 6-5 7-9 8-7 5-5h2z" fill="#89D0E4"/>
<path transform="translate(231,976)" d="m0 0 9 4 4 3v2l4 1 5 5 11 8 3 5-5-1-15-10-13-11-3-4z" fill="#5E1F2E"/>
<path transform="translate(1163,902)" d="m0 0 3 1 2 13-2 22-4-4-3-6 3-8z" fill="#602375"/>
<path transform="translate(946,764)" d="m0 0 4 1 5 7 12 9 4 4-4 3-5-2-11-11-5-8z" fill="#7B47BE"/>
<path transform="translate(938,1347)" d="m0 0 2 1-2 10v4l-14 14-1-3 5-12 3-5h2l1-4h2z" fill="#7B53B7"/>
<path transform="translate(945,717)" d="m0 0 3 1v9l1 9 5 10 7 8-1 2-8-7-5-6-2-5-2-11 1-7z" fill="#BBAEAA"/>
<path transform="translate(1070,1024)" d="m0 0 2 3-1 9-3 3-4 7-3-3-2-4 1-4 9-10z" fill="#B285E7"/>
<path transform="translate(598,1088)" d="m0 0 7 1 5 3 16 9v1l-8 2-7-4-1-3-11-5z" fill="#8354C0"/>
<path transform="translate(774,1355)" d="m0 0 11 2 5-1 3 1v2l-2 2 2 2 6 1v3l-13-3-12-5z" fill="#B285E7"/>
<path transform="translate(268,974)" d="m0 0 4 2 11 7 10 7 10 6 9 6-4 1-13-8-15-10-10-7z" fill="#B08AD5"/>
<path transform="translate(1013,760)" d="m0 0 10 3 14 3h17l14-3 4 1-14 4-16 1-16-2-13-5z" fill="#B06104"/>
<path transform="translate(633,1107)" d="m0 0 10 3 8 6 1 5-5-1-7-4-3-1 1-5-5-2z" fill="#8354C0"/>
<path transform="translate(854,1296)" d="m0 0 2 1-5 5-8 7-13 6h-6l4-2 11-6 11-8z" fill="#E6A955"/>
<path transform="translate(573,1073)" d="m0 0 10 4 9 5 3 4-8-1v-2l-5-2-8-4-2-3z" fill="#8354C0"/>
<path transform="translate(1173,1100)" d="m0 0v3l-11 12-9 10-6 7-2-2 8-8 7-8 9-10z" fill="#BDB4BF"/>
<path transform="translate(1277,916)" d="m0 0h1v14l-3 22-2-4 1-11z" fill="#B9A6B9"/>
<path transform="translate(829,1212)" d="m0 0h1l1 12 3 4 5-1-2 4-5 1-2-1-2-10z" fill="#BBAEAB"/>
<path transform="translate(956,773)" d="m0 0 9 6 6 5-4 2-10-9z" fill="#602487"/>
<path transform="translate(1435,716)" d="m0 0 7 6 7 11 1 3v8l-2-4-5-13-8-9z" fill="#B78EE8"/>
<path transform="translate(1066,744)" d="m0 0h5v2l-8 3h-9l3-3z" fill="#F1B96E"/>
<path transform="translate(1013,760)" d="m0 0 10 3 9 3v2l-12-3-7-3z" fill="#B86B05"/>
<path transform="translate(1157,1101)" d="m0 0 4 1-7 7-7 4-2-1 9-7z" fill="#7950B6"/>
<path transform="translate(1154,888)" d="m0 0 5 2 5 7 1 5-3-1-4-8z" fill="#5F2282"/>
<path transform="translate(299,995)" d="m0 0 6 2 7 5-4 1-9-6z" fill="#AF8DCB"/>
<path transform="translate(1164,925)" d="m0 0h1v12l-3-3-1-6z" fill="#AC9A9F"/>
<path transform="translate(856,1360)" d="m0 0 5 2 7 3-2 2-5-1v-2l-4-2z" fill="#763EC0"/>
</svg>
